<svg id="Layer_1" data-name="Layer 1" xmlns="http://www.w3.org/2000/svg" viewBox="0 0 205 56"><defs><style>.cls-1{fill:#0e4c87;}.cls-2{fill:#24b8eb;}</style></defs><polygon class="cls-1" points="28.42 18.61 18.67 25.88 18.73 37.61 38.63 37.61 38.62 25.88 28.42 18.61"/><polygon class="cls-2" points="55.21 20.51 28.1 1.18 16.42 9.89 16.42 17.74 28.25 8.93 47.84 22.9 47.87 45.44 9.62 45.44 9.49 22.9 9.55 22.86 9.55 15.01 2.17 20.51 2.33 51.69 55.25 51.69 55.21 20.51"/><path class="cls-1" d="M75.06,22.24H70.31V34.69H66.7V22.24H61.92V19.07H75.06Z"/><path class="cls-1" d="M95.58,19.07V34.69H92v-6.4H85.75v6.4H82.14V19.07h3.61v6.05H92V19.07Z"/><path class="cls-1" d="M114.88,31.53v3.16h-11V19.07h10.78v3.17h-7.17v3h6.16V28.2h-6.16v3.33Z"/><path class="cls-1" d="M122.4,34.69V19.07h7a4.63,4.63,0,0,1,2.07.47,5.14,5.14,0,0,1,1.62,1.21,5.86,5.86,0,0,1,1,1.69,5.05,5.05,0,0,1,.39,1.94,5.32,5.32,0,0,1-.32,1.82,5.2,5.2,0,0,1-.89,1.56A5.05,5.05,0,0,1,132,28.89l3.44,5.8h-4l-3-5H126v5Zm3.61-8.2h3.32a1.2,1.2,0,0,0,.76-.27,1.79,1.79,0,0,0,.56-.74,2.6,2.6,0,0,0,.22-1.1,2.4,2.4,0,0,0-.25-1.14,2.11,2.11,0,0,0-.64-.74,1.42,1.42,0,0,0-.78-.26H126Z"/><path class="cls-1" d="M154.79,34.69V25.37l-3.39,6.77h-2l-3.37-6.77v9.32h-3.6V19.07h3.91l4.05,8.17,4-8.17h3.91V34.69Z"/><path class="cls-1" d="M170.65,19.07h3.87l5.41,15.62h-3.69l-1.06-3.49H170L169,34.69h-3.69Zm3.78,9.66-1.82-6-1.84,6Z"/><path class="cls-1" d="M186.77,34.69V19.07h3.61V31.53H198v3.16Z"/><path class="cls-2" d="M69.6,49.68v2h-7V41.75h6.86v2H64.91V45.7h3.92v1.86H64.91v2.12Z"/><path class="cls-2" d="M74.69,46v5.69H72.4V41.75h1.82l4.6,5.86V41.75h2.29v9.94H79.24Z"/><path class="cls-2" d="M85.87,41.75,88.2,49l2.31-7.25h2.43l-3.62,9.94H87.07l-3.64-9.94Z"/><path class="cls-2" d="M95.26,51.69V41.75h2.3v9.94Z"/><path class="cls-2" d="M100.86,51.69V41.75h4.47a2.9,2.9,0,0,1,1.31.3,3.17,3.17,0,0,1,1,.77,3.33,3.33,0,0,1,.67,1.08,3.11,3.11,0,0,1,.25,1.23,3.31,3.31,0,0,1-.77,2.15A3.14,3.14,0,0,1,107,48l2.19,3.69h-2.54l-1.9-3.2h-1.55v3.2Zm2.3-5.22h2.11a.71.71,0,0,0,.48-.17,1.16,1.16,0,0,0,.36-.47,1.75,1.75,0,0,0,.14-.7,1.47,1.47,0,0,0-.16-.72,1.26,1.26,0,0,0-.41-.47.88.88,0,0,0-.49-.17h-2Z"/><path class="cls-2" d="M115.9,51.76a4.68,4.68,0,0,1-2-.42,5.1,5.1,0,0,1-1.56-1.15A5.2,5.2,0,0,1,111,46.7a5,5,0,0,1,.37-1.89,5.36,5.36,0,0,1,1-1.61A4.83,4.83,0,0,1,116,41.68a4.7,4.7,0,0,1,2,.43,5,5,0,0,1,1.56,1.16,5.34,5.34,0,0,1,1,1.63,5,5,0,0,1,0,3.73,5.22,5.22,0,0,1-1,1.6,5,5,0,0,1-1.58,1.12A4.66,4.66,0,0,1,115.9,51.76Zm-2.59-5a3.5,3.5,0,0,0,.17,1.12,3.18,3.18,0,0,0,.5.95,2.45,2.45,0,0,0,.82.68,2.65,2.65,0,0,0,2.27,0,2.29,2.29,0,0,0,.81-.7,3.17,3.17,0,0,0,.49-1,4,4,0,0,0,.16-1.09,3.4,3.4,0,0,0-.18-1.11,3,3,0,0,0-.5-1A2.2,2.2,0,0,0,117,44a2.51,2.51,0,0,0-1.11-.24,2.43,2.43,0,0,0-1.14.25,2.38,2.38,0,0,0-.82.69,3.56,3.56,0,0,0-.49.95A3.66,3.66,0,0,0,113.31,46.72Z"/><path class="cls-2" d="M125.89,46v5.69H123.6V41.75h1.82l4.6,5.86V41.75h2.28v9.94h-1.86Z"/><path class="cls-2" d="M143.46,51.69V45.76l-2.15,4.31h-1.25l-2.14-4.31v5.93h-2.3V41.75h2.49l2.58,5.2,2.58-5.2h2.49v9.94Z"/><path class="cls-2" d="M156.05,49.68v2h-7V41.75h6.86v2h-4.56V45.7h3.92v1.86h-3.92v2.12Z"/><path class="cls-2" d="M161.14,46v5.69h-2.29V41.75h1.82l4.6,5.86V41.75h2.29v9.94h-1.87Z"/><path class="cls-2" d="M178.45,43.77h-3v7.92h-2.29V43.77h-3v-2h8.36Z"/><path class="cls-2" d="M182.55,41.75H185l3.45,9.94H186.1l-.67-2.22h-3.28l-.68,2.22h-2.35ZM185,47.9l-1.16-3.84-1.17,3.84Z"/><path class="cls-2" d="M190.82,51.69V41.75h2.3v7.93h4.82v2Z"/></svg>